<?xml version="1.0" standalone="no"?>
<svg xmlns:xlink="http://www.w3.org/1999/xlink" id="wave" style="transform:rotate(180deg); transition: 0.3s" viewBox="0 0 1440 200" version="1.1" xmlns="http://www.w3.org/2000/svg"><defs><linearGradient id="sw-gradient-0" x1="0" x2="0" y1="1" y2="0"><stop stop-color="rgba(0, 106, 166, 0.9)" offset="0%"/><stop stop-color="rgba(11, 222, 255, 1)" offset="100%"/></linearGradient></defs><path style="transform:translate(0, 0px); opacity:1" fill="url(#sw-gradient-0)" d="M0,140L40,120C80,100,160,60,240,36.7C320,13,400,7,480,33.3C560,60,640,120,720,143.3C800,167,880,153,960,123.3C1040,93,1120,47,1200,36.7C1280,27,1360,53,1440,66.7C1520,80,1600,80,1680,96.7C1760,113,1840,147,1920,146.7C2000,147,2080,113,2160,113.3C2240,113,2320,147,2400,140C2480,133,2560,87,2640,56.7C2720,27,2800,13,2880,20C2960,27,3040,53,3120,73.3C3200,93,3280,107,3360,103.3C3440,100,3520,80,3600,60C3680,40,3760,20,3840,16.7C3920,13,4000,27,4080,43.3C4160,60,4240,80,4320,96.7C4400,113,4480,127,4560,140C4640,153,4720,167,4800,146.7C4880,127,4960,73,5040,50C5120,27,5200,33,5280,60C5360,87,5440,133,5520,136.7C5600,140,5680,100,5720,80L5760,60L5760,200L5720,200C5680,200,5600,200,5520,200C5440,200,5360,200,5280,200C5200,200,5120,200,5040,200C4960,200,4880,200,4800,200C4720,200,4640,200,4560,200C4480,200,4400,200,4320,200C4240,200,4160,200,4080,200C4000,200,3920,200,3840,200C3760,200,3680,200,3600,200C3520,200,3440,200,3360,200C3280,200,3200,200,3120,200C3040,200,2960,200,2880,200C2800,200,2720,200,2640,200C2560,200,2480,200,2400,200C2320,200,2240,200,2160,200C2080,200,2000,200,1920,200C1840,200,1760,200,1680,200C1600,200,1520,200,1440,200C1360,200,1280,200,1200,200C1120,200,1040,200,960,200C880,200,800,200,720,200C640,200,560,200,480,200C400,200,320,200,240,200C160,200,80,200,40,200L0,200Z"/><defs><linearGradient id="sw-gradient-1" x1="0" x2="0" y1="1" y2="0"><stop stop-color="rgba(0, 106, 166, 0.5)" offset="0%"/><stop stop-color="rgba(11, 222, 255, 1)" offset="100%"/></linearGradient></defs><path style="transform:translate(0, 50px); opacity:0.9" fill="url(#sw-gradient-1)" d="M0,40L40,56.7C80,73,160,107,240,116.7C320,127,400,113,480,96.7C560,80,640,60,720,56.7C800,53,880,67,960,83.3C1040,100,1120,120,1200,136.7C1280,153,1360,167,1440,153.3C1520,140,1600,100,1680,90C1760,80,1840,100,1920,110C2000,120,2080,120,2160,110C2240,100,2320,80,2400,73.3C2480,67,2560,73,2640,80C2720,87,2800,93,2880,110C2960,127,3040,153,3120,153.3C3200,153,3280,127,3360,116.7C3440,107,3520,113,3600,110C3680,107,3760,93,3840,83.3C3920,73,4000,67,4080,70C4160,73,4240,87,4320,83.3C4400,80,4480,60,4560,50C4640,40,4720,40,4800,33.3C4880,27,4960,13,5040,16.7C5120,20,5200,40,5280,53.3C5360,67,5440,73,5520,70C5600,67,5680,53,5720,46.7L5760,40L5760,200L5720,200C5680,200,5600,200,5520,200C5440,200,5360,200,5280,200C5200,200,5120,200,5040,200C4960,200,4880,200,4800,200C4720,200,4640,200,4560,200C4480,200,4400,200,4320,200C4240,200,4160,200,4080,200C4000,200,3920,200,3840,200C3760,200,3680,200,3600,200C3520,200,3440,200,3360,200C3280,200,3200,200,3120,200C3040,200,2960,200,2880,200C2800,200,2720,200,2640,200C2560,200,2480,200,2400,200C2320,200,2240,200,2160,200C2080,200,2000,200,1920,200C1840,200,1760,200,1680,200C1600,200,1520,200,1440,200C1360,200,1280,200,1200,200C1120,200,1040,200,960,200C880,200,800,200,720,200C640,200,560,200,480,200C400,200,320,200,240,200C160,200,80,200,40,200L0,200Z"/></svg>