<svg id="visual" viewBox="0 0 960 240" width="960" height="240" xmlns="http://www.w3.org/2000/svg" xmlns:xlink="http://www.w3.org/1999/xlink" version="1.1"><path d="M0 85L14.5 87.3C29 89.7 58 94.3 87.2 93.5C116.3 92.7 145.7 86.3 174.8 86.8C204 87.3 233 94.7 262 91.2C291 87.7 320 73.3 349 74.2C378 75 407 91 436.2 93.3C465.3 95.7 494.7 84.3 523.8 81C553 77.7 582 82.3 611 84C640 85.7 669 84.3 698 90.3C727 96.3 756 109.7 785.2 107.2C814.3 104.7 843.7 86.3 872.8 74C902 61.7 931 55.3 945.5 52.2L960 49L960 0L945.5 0C931 0 902 0 872.8 0C843.7 0 814.3 0 785.2 0C756 0 727 0 698 0C669 0 640 0 611 0C582 0 553 0 523.8 0C494.7 0 465.3 0 436.2 0C407 0 378 0 349 0C320 0 291 0 262 0C233 0 204 0 174.8 0C145.7 0 116.3 0 87.2 0C58 0 29 0 14.5 0L0 0Z" fill="#004cbb"></path><path d="M0 145L14.5 141C29 137 58 129 87.2 129C116.3 129 145.7 137 174.8 140.7C204 144.3 233 143.7 262 139.3C291 135 320 127 349 125C378 123 407 127 436.2 127.3C465.3 127.7 494.7 124.3 523.8 125.5C553 126.7 582 132.3 611 135.2C640 138 669 138 698 141.2C727 144.3 756 150.7 785.2 143.8C814.3 137 843.7 117 872.8 104.2C902 91.3 931 85.7 945.5 82.8L960 80L960 47L945.5 50.2C931 53.3 902 59.7 872.8 72C843.7 84.3 814.3 102.7 785.2 105.2C756 107.7 727 94.3 698 88.3C669 82.3 640 83.7 611 82C582 80.3 553 75.7 523.8 79C494.7 82.3 465.3 93.7 436.2 91.3C407 89 378 73 349 72.2C320 71.3 291 85.7 262 89.2C233 92.7 204 85.3 174.8 84.8C145.7 84.3 116.3 90.7 87.2 91.5C58 92.3 29 87.7 14.5 85.3L0 83Z" fill="#0059dd"></path><path d="M0 179L14.5 173.3C29 167.7 58 156.3 87.2 153C116.3 149.7 145.7 154.3 174.8 158.7C204 163 233 167 262 165.8C291 164.7 320 158.3 349 158C378 157.7 407 163.3 436.2 161.3C465.3 159.3 494.7 149.7 523.8 147.7C553 145.7 582 151.3 611 154.2C640 157 669 157 698 159.3C727 161.7 756 166.3 785.2 160.7C814.3 155 843.7 139 872.8 130.3C902 121.7 931 120.3 945.5 119.7L960 119L960 78L945.5 80.8C931 83.7 902 89.3 872.8 102.2C843.7 115 814.3 135 785.2 141.8C756 148.7 727 142.3 698 139.2C669 136 640 136 611 133.2C582 130.3 553 124.7 523.8 123.5C494.7 122.3 465.3 125.7 436.2 125.3C407 125 378 121 349 123C320 125 291 133 262 137.3C233 141.7 204 142.3 174.8 138.7C145.7 135 116.3 127 87.2 127C58 127 29 135 14.5 139L0 143Z" fill="#0066ff"></path><path d="M0 212L14.5 205.2C29 198.3 58 184.7 87.2 183.5C116.3 182.3 145.7 193.7 174.8 198.2C204 202.7 233 200.3 262 194.7C291 189 320 180 349 180.8C378 181.7 407 192.3 436.2 190C465.3 187.7 494.7 172.3 523.8 168.3C553 164.3 582 171.7 611 175.7C640 179.7 669 180.3 698 184.3C727 188.3 756 195.7 785.2 194C814.3 192.3 843.7 181.7 872.8 171.2C902 160.7 931 150.3 945.5 145.2L960 140L960 117L945.5 117.7C931 118.3 902 119.7 872.8 128.3C843.7 137 814.3 153 785.2 158.7C756 164.3 727 159.7 698 157.3C669 155 640 155 611 152.2C582 149.3 553 143.7 523.8 145.7C494.7 147.7 465.3 157.3 436.2 159.3C407 161.3 378 155.7 349 156C320 156.3 291 162.7 262 163.8C233 165 204 161 174.8 156.7C145.7 152.3 116.3 147.7 87.2 151C58 154.3 29 165.7 14.5 171.3L0 177Z" fill="#3c80ff"></path><path d="M0 241L14.5 241C29 241 58 241 87.2 241C116.3 241 145.7 241 174.8 241C204 241 233 241 262 241C291 241 320 241 349 241C378 241 407 241 436.2 241C465.3 241 494.7 241 523.8 241C553 241 582 241 611 241C640 241 669 241 698 241C727 241 756 241 785.2 241C814.3 241 843.7 241 872.8 241C902 241 931 241 945.5 241L960 241L960 138L945.5 143.2C931 148.3 902 158.7 872.8 169.2C843.7 179.7 814.3 190.3 785.2 192C756 193.7 727 186.3 698 182.3C669 178.3 640 177.7 611 173.7C582 169.7 553 162.3 523.8 166.3C494.7 170.3 465.3 185.7 436.2 188C407 190.3 378 179.7 349 178.8C320 178 291 187 262 192.7C233 198.3 204 200.7 174.8 196.2C145.7 191.7 116.3 180.3 87.2 181.5C58 182.7 29 196.3 14.5 203.2L0 210Z" fill="#6198ff"></path></svg>