<?xml version="1.0" standalone="no"?><svg xmlns="http://www.w3.org/2000/svg" viewBox="0 0 1440 320"><path fill="#075985" fill-opacity="1" d="M0,192L40,202.7C80,213,160,235,240,218.7C320,203,400,149,480,154.7C560,160,640,224,720,229.3C800,235,880,181,960,165.3C1040,149,1120,171,1200,170.7C1280,171,1360,149,1400,138.7L1440,128L1440,320L1400,320C1360,320,1280,320,1200,320C1120,320,1040,320,960,320C880,320,800,320,720,320C640,320,560,320,480,320C400,320,320,320,240,320C160,320,80,320,40,320L0,320Z"></path></svg>