<?xml version="1.0" standalone="no"?>
<svg xmlns:xlink="http://www.w3.org/1999/xlink" id="wave" style="transform:rotate(180deg); transition: 0.3s" viewBox="0 0 1440 110" version="1.1" xmlns="http://www.w3.org/2000/svg"><defs><linearGradient id="sw-gradient-0" x1="0" x2="0" y1="1" y2="0"><stop stop-color="rgba(0, 47, 75, 1)" offset="0%"/><stop stop-color="rgba(43, 98, 109,1)" offset="100%"/></linearGradient></defs><path style="transform:translate(0, 0px); opacity:1" fill="url(#sw-gradient-0)" d="M0,77L40,66C80,55,160,33,240,20.2C320,7,400,4,480,18.3C560,33,640,66,720,78.8C800,92,880,84,960,67.8C1040,51,1120,26,1200,20.2C1280,15,1360,29,1440,36.7C1520,44,1600,44,1680,53.2C1760,62,1840,81,1920,80.7C2000,81,2080,62,2160,62.3C2240,62,2320,81,2400,77C2480,73,2560,48,2640,31.2C2720,15,2800,7,2880,11C2960,15,3040,29,3120,40.3C3200,51,3280,59,3360,56.8C3440,55,3520,44,3600,33C3680,22,3760,11,3840,9.2C3920,7,4000,15,4080,23.8C4160,33,4240,44,4320,53.2C4400,62,4480,70,4560,77C4640,84,4720,92,4800,80.7C4880,70,4960,40,5040,27.5C5120,15,5200,18,5280,33C5360,48,5440,73,5520,75.2C5600,77,5680,55,5720,44L5760,33L5760,110L5720,110C5680,110,5600,110,5520,110C5440,110,5360,110,5280,110C5200,110,5120,110,5040,110C4960,110,4880,110,4800,110C4720,110,4640,110,4560,110C4480,110,4400,110,4320,110C4240,110,4160,110,4080,110C4000,110,3920,110,3840,110C3760,110,3680,110,3600,110C3520,110,3440,110,3360,110C3280,110,3200,110,3120,110C3040,110,2960,110,2880,110C2800,110,2720,110,2640,110C2560,110,2480,110,2400,110C2320,110,2240,110,2160,110C2080,110,2000,110,1920,110C1840,110,1760,110,1680,110C1600,110,1520,110,1440,110C1360,110,1280,110,1200,110C1120,110,1040,110,960,110C880,110,800,110,720,110C640,110,560,110,480,110C400,110,320,110,240,110C160,110,80,110,40,110L0,110Z"/><defs><linearGradient id="sw-gradient-1" x1="0" x2="0" y1="1" y2="0"><stop stop-color="rgba(0, 47, 75, 1)" offset="0%"/><stop stop-color="rgba(43, 98, 109,1)" offset="100%"/></linearGradient></defs><path style="transform:translate(0, 50px); opacity:0.9" fill="url(#sw-gradient-1)" d="M0,22L40,31.2C80,40,160,59,240,64.2C320,70,400,62,480,53.2C560,44,640,33,720,31.2C800,29,880,37,960,45.8C1040,55,1120,66,1200,75.2C1280,84,1360,92,1440,84.3C1520,77,1600,55,1680,49.5C1760,44,1840,55,1920,60.5C2000,66,2080,66,2160,60.5C2240,55,2320,44,2400,40.3C2480,37,2560,40,2640,44C2720,48,2800,51,2880,60.5C2960,70,3040,84,3120,84.3C3200,84,3280,70,3360,64.2C3440,59,3520,62,3600,60.5C3680,59,3760,51,3840,45.8C3920,40,4000,37,4080,38.5C4160,40,4240,48,4320,45.8C4400,44,4480,33,4560,27.5C4640,22,4720,22,4800,18.3C4880,15,4960,7,5040,9.2C5120,11,5200,22,5280,29.3C5360,37,5440,40,5520,38.5C5600,37,5680,29,5720,25.7L5760,22L5760,110L5720,110C5680,110,5600,110,5520,110C5440,110,5360,110,5280,110C5200,110,5120,110,5040,110C4960,110,4880,110,4800,110C4720,110,4640,110,4560,110C4480,110,4400,110,4320,110C4240,110,4160,110,4080,110C4000,110,3920,110,3840,110C3760,110,3680,110,3600,110C3520,110,3440,110,3360,110C3280,110,3200,110,3120,110C3040,110,2960,110,2880,110C2800,110,2720,110,2640,110C2560,110,2480,110,2400,110C2320,110,2240,110,2160,110C2080,110,2000,110,1920,110C1840,110,1760,110,1680,110C1600,110,1520,110,1440,110C1360,110,1280,110,1200,110C1120,110,1040,110,960,110C880,110,800,110,720,110C640,110,560,110,480,110C400,110,320,110,240,110C160,110,80,110,40,110L0,110Z"/></svg>